# xmcd CD database file
#
# Track frame offsets:
#	150
#	14625
#	30657
#	43332
#	56705
#	67745
#	82199
#	93818
#	109126
#	123153
#	133115
#	145642
#	161907
#	178646
#	191966
#	217476
#	240077
#	266515
#	284537
#
# Disc length: 4048 seconds
#
# Revision: 1
# Processed by: cddbd v1.5.1PL2 Copyright (c) Steve Scherf et al.
# Submitted via: FreeDB 11.5
#
DISCID=1f0fce13
DTITLE=Billie Holiday - Stormy Blues
DYEAR=2002
DGENRE=Jazz
TTITLE0=I Can't Face the Music
TTITLE1=Lover Come Back To Me
TTITLE2=Yesterdays
TTITLE3=How Deep Is the Ocean (How High Is the Sky)
TTITLE4=I Cried For You
TTITLE5=What a Little Moonlight Can Do
TTITLE6=Love Me Or Leave Me
TTITLE7=Stormy Blues
TTITLE8=Willow Weep For Me
TTITLE9=Too Marvelous For Words
TTITLE10=I Thought About You
TTITLE11=P.S. I Love You
TTITLE12=Stormy Weather
TTITLE13=Love For Sale
TTITLE14=I Get a Kick Out of You
TTITLE15=Do Nothing Till You Hear From Me
TTITLE16=I Got a Right To Sing the Blues
TTITLE17=It Had To Be You
TTITLE18=Please Don't Talk About Me When I'm Gone
EXTD=
EXTT0=
EXTT1=
EXTT2=
EXTT3=
EXTT4=
EXTT5=
EXTT6=
EXTT7=
EXTT8=
EXTT9=
EXTT10=
EXTT11=
EXTT12=
EXTT13=
EXTT14=
EXTT15=
EXTT16=
EXTT17=
EXTT18=
PLAYORDER=
